<mxfile host="65bd71144e" modified="2021-02-14T02:47:57.734Z" agent="5.0 (Macintosh; Intel Mac OS X 11_2_1) AppleWebKit/537.36 (KHTML, like Gecko) Code/1.53.0 Chrome/87.0.4280.141 Electron/11.2.1 Safari/537.36" etag="b1GxHk-yDbcnEMS3TwBW" version="14.2.4" type="embed" pages="3">
    <diagram id="t2l9ivrVy0Sge82qfB8s" name="树状散开">
        <mxGraphModel dx="690" dy="876" grid="1" gridSize="10" guides="1" tooltips="1" connect="1" arrows="1" fold="1" page="1" pageScale="1" pageWidth="827" pageHeight="1169" math="0" shadow="0">
            <root>
                <mxCell id="0"/>
                <mxCell id="1" parent="0"/>
                <mxCell id="32" style="edgeStyle=orthogonalEdgeStyle;curved=1;rounded=0;orthogonalLoop=1;jettySize=auto;html=1;exitX=0.5;exitY=1;exitDx=0;exitDy=0;entryX=0.5;entryY=0;entryDx=0;entryDy=0;" edge="1" source="50" target="37" parent="1">
                    <mxGeometry relative="1" as="geometry"/>
                </mxCell>
                <mxCell id="33" style="edgeStyle=orthogonalEdgeStyle;rounded=0;orthogonalLoop=1;jettySize=auto;html=1;exitX=0.5;exitY=1;exitDx=0;exitDy=0;entryX=0.5;entryY=0;entryDx=0;entryDy=0;curved=1;" edge="1" source="34" target="50" parent="1">
                    <mxGeometry relative="1" as="geometry"/>
                </mxCell>
                <mxCell id="34" value="用户" style="ellipse;whiteSpace=wrap;html=1;fillColor=#ffe6cc;strokeColor=#d79b00;" vertex="1" parent="1">
                    <mxGeometry x="340" y="520" width="120" height="80" as="geometry"/>
                </mxCell>
                <mxCell id="35" style="edgeStyle=orthogonalEdgeStyle;curved=1;rounded=0;orthogonalLoop=1;jettySize=auto;html=1;exitX=0.25;exitY=1;exitDx=0;exitDy=0;entryX=0.5;entryY=0;entryDx=0;entryDy=0;" edge="1" source="37" target="49" parent="1">
                    <mxGeometry relative="1" as="geometry"/>
                </mxCell>
                <mxCell id="36" style="edgeStyle=orthogonalEdgeStyle;curved=1;rounded=0;orthogonalLoop=1;jettySize=auto;html=1;exitX=0.5;exitY=1;exitDx=0;exitDy=0;entryX=0.25;entryY=0;entryDx=0;entryDy=0;" edge="1" source="37" target="44" parent="1">
                    <mxGeometry relative="1" as="geometry"/>
                </mxCell>
                <mxCell id="37" value="后台服务" style="rounded=0;whiteSpace=wrap;html=1;fillColor=#dae8fc;strokeColor=#6c8ebf;" vertex="1" parent="1">
                    <mxGeometry x="280" y="740" width="120" height="60" as="geometry"/>
                </mxCell>
                <mxCell id="52" style="edgeStyle=orthogonalEdgeStyle;curved=1;rounded=0;orthogonalLoop=1;jettySize=auto;html=1;exitX=0.5;exitY=1;exitDx=0;exitDy=0;entryX=0.5;entryY=0;entryDx=0;entryDy=0;" edge="1" parent="1" source="38" target="40">
                    <mxGeometry relative="1" as="geometry"/>
                </mxCell>
                <mxCell id="38" value="后台服务" style="rounded=0;whiteSpace=wrap;html=1;fillColor=#dae8fc;strokeColor=#6c8ebf;" vertex="1" parent="1">
                    <mxGeometry x="440" y="740" width="120" height="60" as="geometry"/>
                </mxCell>
                <mxCell id="39" style="edgeStyle=orthogonalEdgeStyle;curved=1;rounded=0;orthogonalLoop=1;jettySize=auto;html=1;exitX=0.5;exitY=1;exitDx=0;exitDy=0;entryX=0.5;entryY=0;entryDx=0;entryDy=0;" edge="1" source="40" target="47" parent="1">
                    <mxGeometry relative="1" as="geometry"/>
                </mxCell>
                <mxCell id="40" value="后台服务" style="rounded=0;whiteSpace=wrap;html=1;fillColor=#dae8fc;strokeColor=#6c8ebf;" vertex="1" parent="1">
                    <mxGeometry x="480" y="840" width="120" height="60" as="geometry"/>
                </mxCell>
                <mxCell id="42" style="edgeStyle=orthogonalEdgeStyle;curved=1;rounded=0;orthogonalLoop=1;jettySize=auto;html=1;exitX=0.5;exitY=1;exitDx=0;exitDy=0;entryX=0.5;entryY=0;entryDx=0;entryDy=0;" edge="1" source="44" target="45" parent="1">
                    <mxGeometry relative="1" as="geometry"/>
                </mxCell>
                <mxCell id="44" value="后台服务" style="rounded=0;whiteSpace=wrap;html=1;fillColor=#dae8fc;strokeColor=#6c8ebf;" vertex="1" parent="1">
                    <mxGeometry x="280" y="840" width="120" height="60" as="geometry"/>
                </mxCell>
                <mxCell id="45" value="后台服务" style="rounded=0;whiteSpace=wrap;html=1;fillColor=#dae8fc;strokeColor=#6c8ebf;" vertex="1" parent="1">
                    <mxGeometry x="200" y="940" width="120" height="60" as="geometry"/>
                </mxCell>
                <mxCell id="47" value="后台服务" style="rounded=0;whiteSpace=wrap;html=1;fillColor=#dae8fc;strokeColor=#6c8ebf;" vertex="1" parent="1">
                    <mxGeometry x="520" y="940" width="120" height="60" as="geometry"/>
                </mxCell>
                <mxCell id="49" value="后台服务" style="rounded=0;whiteSpace=wrap;html=1;fillColor=#dae8fc;strokeColor=#6c8ebf;" vertex="1" parent="1">
                    <mxGeometry x="120" y="840" width="120" height="60" as="geometry"/>
                </mxCell>
                <mxCell id="51" style="edgeStyle=orthogonalEdgeStyle;rounded=0;orthogonalLoop=1;jettySize=auto;html=1;exitX=0.75;exitY=1;exitDx=0;exitDy=0;entryX=0.5;entryY=0;entryDx=0;entryDy=0;curved=1;" edge="1" parent="1" source="50" target="38">
                    <mxGeometry relative="1" as="geometry"/>
                </mxCell>
                <mxCell id="58" value="2. 请求后台" style="edgeLabel;html=1;align=center;verticalAlign=middle;resizable=0;points=[];" vertex="1" connectable="0" parent="51">
                    <mxGeometry x="-0.744" y="5" relative="1" as="geometry">
                        <mxPoint x="-25" as="offset"/>
                    </mxGeometry>
                </mxCell>
                <mxCell id="54" style="edgeStyle=orthogonalEdgeStyle;curved=1;rounded=0;orthogonalLoop=1;jettySize=auto;html=1;exitX=1;exitY=0.25;exitDx=0;exitDy=0;entryX=0;entryY=0.25;entryDx=0;entryDy=0;" edge="1" parent="1" source="50" target="53">
                    <mxGeometry relative="1" as="geometry"/>
                </mxCell>
                <mxCell id="56" value="1. 身份认证" style="edgeLabel;html=1;align=center;verticalAlign=middle;resizable=0;points=[];" vertex="1" connectable="0" parent="54">
                    <mxGeometry x="-0.406" y="1" relative="1" as="geometry">
                        <mxPoint x="10" as="offset"/>
                    </mxGeometry>
                </mxCell>
                <mxCell id="50" value="接入层CGI" style="rounded=0;whiteSpace=wrap;html=1;fillColor=#f8cecc;strokeColor=#b85450;" vertex="1" parent="1">
                    <mxGeometry x="340" y="640" width="120" height="60" as="geometry"/>
                </mxCell>
                <mxCell id="55" style="edgeStyle=orthogonalEdgeStyle;curved=1;rounded=0;orthogonalLoop=1;jettySize=auto;html=1;exitX=0;exitY=0.75;exitDx=0;exitDy=0;entryX=1;entryY=0.75;entryDx=0;entryDy=0;dashed=1;" edge="1" parent="1" source="53" target="50">
                    <mxGeometry relative="1" as="geometry"/>
                </mxCell>
                <mxCell id="62" value="认证结果" style="edgeLabel;html=1;align=center;verticalAlign=middle;resizable=0;points=[];" vertex="1" connectable="0" parent="55">
                    <mxGeometry x="-0.0707" y="2" relative="1" as="geometry">
                        <mxPoint x="-2.8599999999999994" as="offset"/>
                    </mxGeometry>
                </mxCell>
                <mxCell id="53" value="认证服务" style="rounded=1;whiteSpace=wrap;html=1;fillColor=#d5e8d4;strokeColor=#82b366;" vertex="1" parent="1">
                    <mxGeometry x="560" y="640" width="120" height="60" as="geometry"/>
                </mxCell>
                <mxCell id="63" value="访问控制" style="rounded=0;whiteSpace=wrap;html=1;align=center;fillColor=#d5e8d4;strokeColor=#82b366;" vertex="1" parent="1">
                    <mxGeometry x="120" y="840" width="120" height="20" as="geometry"/>
                </mxCell>
                <mxCell id="66" value="访问控制" style="rounded=0;whiteSpace=wrap;html=1;align=center;fillColor=#d5e8d4;strokeColor=#82b366;" vertex="1" parent="1">
                    <mxGeometry x="200" y="940" width="120" height="20" as="geometry"/>
                </mxCell>
                <mxCell id="67" value="访问控制" style="rounded=0;whiteSpace=wrap;html=1;align=center;fillColor=#d5e8d4;strokeColor=#82b366;" vertex="1" parent="1">
                    <mxGeometry x="520" y="940" width="120" height="20" as="geometry"/>
                </mxCell>
            </root>
        </mxGraphModel>
    </diagram>
    <diagram id="HST9kiqxpkBz5hI9HWE9" name="层层传递">
        <mxGraphModel dx="483" dy="613" grid="1" gridSize="10" guides="1" tooltips="1" connect="1" arrows="1" fold="1" page="1" pageScale="1" pageWidth="827" pageHeight="1169" math="0" shadow="0">
            <root>
                <mxCell id="cPwWHmM8qkRHBvmluJ3e-0"/>
                <mxCell id="cPwWHmM8qkRHBvmluJ3e-1" parent="cPwWHmM8qkRHBvmluJ3e-0"/>
                <mxCell id="J4YeNeJ_UbZllBa-aAjY-0" style="edgeStyle=orthogonalEdgeStyle;curved=1;rounded=0;orthogonalLoop=1;jettySize=auto;html=1;exitX=0.5;exitY=1;exitDx=0;exitDy=0;entryX=0.5;entryY=0;entryDx=0;entryDy=0;" edge="1" parent="cPwWHmM8qkRHBvmluJ3e-1" source="J4YeNeJ_UbZllBa-aAjY-19" target="J4YeNeJ_UbZllBa-aAjY-5">
                    <mxGeometry relative="1" as="geometry"/>
                </mxCell>
                <mxCell id="J4YeNeJ_UbZllBa-aAjY-1" style="edgeStyle=orthogonalEdgeStyle;rounded=0;orthogonalLoop=1;jettySize=auto;html=1;exitX=0.5;exitY=1;exitDx=0;exitDy=0;entryX=0.5;entryY=0;entryDx=0;entryDy=0;curved=1;" edge="1" parent="cPwWHmM8qkRHBvmluJ3e-1" source="J4YeNeJ_UbZllBa-aAjY-2" target="J4YeNeJ_UbZllBa-aAjY-19">
                    <mxGeometry relative="1" as="geometry"/>
                </mxCell>
                <mxCell id="J4YeNeJ_UbZllBa-aAjY-2" value="用户" style="ellipse;whiteSpace=wrap;html=1;fillColor=#ffe6cc;strokeColor=#d79b00;" vertex="1" parent="cPwWHmM8qkRHBvmluJ3e-1">
                    <mxGeometry x="340" y="520" width="120" height="80" as="geometry"/>
                </mxCell>
                <mxCell id="J4YeNeJ_UbZllBa-aAjY-3" style="edgeStyle=orthogonalEdgeStyle;curved=1;rounded=0;orthogonalLoop=1;jettySize=auto;html=1;exitX=0.25;exitY=1;exitDx=0;exitDy=0;entryX=0.5;entryY=0;entryDx=0;entryDy=0;" edge="1" parent="cPwWHmM8qkRHBvmluJ3e-1" source="J4YeNeJ_UbZllBa-aAjY-5" target="J4YeNeJ_UbZllBa-aAjY-14">
                    <mxGeometry relative="1" as="geometry"/>
                </mxCell>
                <mxCell id="J4YeNeJ_UbZllBa-aAjY-4" style="edgeStyle=orthogonalEdgeStyle;curved=1;rounded=0;orthogonalLoop=1;jettySize=auto;html=1;exitX=0.5;exitY=1;exitDx=0;exitDy=0;entryX=0.25;entryY=0;entryDx=0;entryDy=0;" edge="1" parent="cPwWHmM8qkRHBvmluJ3e-1" source="J4YeNeJ_UbZllBa-aAjY-5" target="J4YeNeJ_UbZllBa-aAjY-11">
                    <mxGeometry relative="1" as="geometry"/>
                </mxCell>
                <mxCell id="J4YeNeJ_UbZllBa-aAjY-26" style="edgeStyle=orthogonalEdgeStyle;curved=1;rounded=0;orthogonalLoop=1;jettySize=auto;html=1;exitX=0;exitY=0.5;exitDx=0;exitDy=0;entryX=0.25;entryY=0;entryDx=0;entryDy=0;dashed=1;dashPattern=1 1;" edge="1" parent="cPwWHmM8qkRHBvmluJ3e-1" source="J4YeNeJ_UbZllBa-aAjY-5" target="J4YeNeJ_UbZllBa-aAjY-22">
                    <mxGeometry relative="1" as="geometry"/>
                </mxCell>
                <mxCell id="J4YeNeJ_UbZllBa-aAjY-5" value="后台服务" style="rounded=0;whiteSpace=wrap;html=1;fillColor=#dae8fc;strokeColor=#6c8ebf;" vertex="1" parent="cPwWHmM8qkRHBvmluJ3e-1">
                    <mxGeometry x="280" y="740" width="120" height="60" as="geometry"/>
                </mxCell>
                <mxCell id="J4YeNeJ_UbZllBa-aAjY-6" style="edgeStyle=orthogonalEdgeStyle;curved=1;rounded=0;orthogonalLoop=1;jettySize=auto;html=1;exitX=0.5;exitY=1;exitDx=0;exitDy=0;entryX=0.5;entryY=0;entryDx=0;entryDy=0;" edge="1" parent="cPwWHmM8qkRHBvmluJ3e-1" source="J4YeNeJ_UbZllBa-aAjY-7" target="J4YeNeJ_UbZllBa-aAjY-9">
                    <mxGeometry relative="1" as="geometry"/>
                </mxCell>
                <mxCell id="J4YeNeJ_UbZllBa-aAjY-27" style="edgeStyle=orthogonalEdgeStyle;curved=1;rounded=0;orthogonalLoop=1;jettySize=auto;html=1;exitX=0.75;exitY=0;exitDx=0;exitDy=0;entryX=0.25;entryY=1;entryDx=0;entryDy=0;dashed=1;dashPattern=1 1;" edge="1" parent="cPwWHmM8qkRHBvmluJ3e-1" source="J4YeNeJ_UbZllBa-aAjY-7" target="J4YeNeJ_UbZllBa-aAjY-22">
                    <mxGeometry relative="1" as="geometry"/>
                </mxCell>
                <mxCell id="J4YeNeJ_UbZllBa-aAjY-7" value="后台服务" style="rounded=0;whiteSpace=wrap;html=1;fillColor=#dae8fc;strokeColor=#6c8ebf;" vertex="1" parent="cPwWHmM8qkRHBvmluJ3e-1">
                    <mxGeometry x="440" y="740" width="120" height="60" as="geometry"/>
                </mxCell>
                <mxCell id="J4YeNeJ_UbZllBa-aAjY-8" style="edgeStyle=orthogonalEdgeStyle;curved=1;rounded=0;orthogonalLoop=1;jettySize=auto;html=1;exitX=0.5;exitY=1;exitDx=0;exitDy=0;entryX=0.5;entryY=0;entryDx=0;entryDy=0;" edge="1" parent="cPwWHmM8qkRHBvmluJ3e-1" source="J4YeNeJ_UbZllBa-aAjY-9" target="J4YeNeJ_UbZllBa-aAjY-13">
                    <mxGeometry relative="1" as="geometry"/>
                </mxCell>
                <mxCell id="J4YeNeJ_UbZllBa-aAjY-28" style="edgeStyle=orthogonalEdgeStyle;curved=1;rounded=0;orthogonalLoop=1;jettySize=auto;html=1;exitX=0.75;exitY=0;exitDx=0;exitDy=0;entryX=0.5;entryY=1;entryDx=0;entryDy=0;dashed=1;dashPattern=1 1;" edge="1" parent="cPwWHmM8qkRHBvmluJ3e-1" source="J4YeNeJ_UbZllBa-aAjY-9" target="J4YeNeJ_UbZllBa-aAjY-22">
                    <mxGeometry relative="1" as="geometry"/>
                </mxCell>
                <mxCell id="J4YeNeJ_UbZllBa-aAjY-9" value="后台服务" style="rounded=0;whiteSpace=wrap;html=1;fillColor=#dae8fc;strokeColor=#6c8ebf;" vertex="1" parent="cPwWHmM8qkRHBvmluJ3e-1">
                    <mxGeometry x="480" y="840" width="120" height="60" as="geometry"/>
                </mxCell>
                <mxCell id="J4YeNeJ_UbZllBa-aAjY-10" style="edgeStyle=orthogonalEdgeStyle;curved=1;rounded=0;orthogonalLoop=1;jettySize=auto;html=1;exitX=0.5;exitY=1;exitDx=0;exitDy=0;entryX=0.5;entryY=0;entryDx=0;entryDy=0;" edge="1" parent="cPwWHmM8qkRHBvmluJ3e-1" source="J4YeNeJ_UbZllBa-aAjY-11" target="J4YeNeJ_UbZllBa-aAjY-12">
                    <mxGeometry relative="1" as="geometry"/>
                </mxCell>
                <mxCell id="J4YeNeJ_UbZllBa-aAjY-11" value="后台服务" style="rounded=0;whiteSpace=wrap;html=1;fillColor=#dae8fc;strokeColor=#6c8ebf;" vertex="1" parent="cPwWHmM8qkRHBvmluJ3e-1">
                    <mxGeometry x="280" y="840" width="120" height="60" as="geometry"/>
                </mxCell>
                <mxCell id="J4YeNeJ_UbZllBa-aAjY-31" style="edgeStyle=orthogonalEdgeStyle;curved=1;rounded=0;orthogonalLoop=1;jettySize=auto;html=1;exitX=1;exitY=0.5;exitDx=0;exitDy=0;entryX=1;entryY=0.5;entryDx=0;entryDy=0;dashed=1;dashPattern=1 1;" edge="1" parent="cPwWHmM8qkRHBvmluJ3e-1" source="J4YeNeJ_UbZllBa-aAjY-12" target="J4YeNeJ_UbZllBa-aAjY-22">
                    <mxGeometry relative="1" as="geometry"/>
                </mxCell>
                <mxCell id="J4YeNeJ_UbZllBa-aAjY-12" value="后台服务" style="rounded=0;whiteSpace=wrap;html=1;fillColor=#dae8fc;strokeColor=#6c8ebf;" vertex="1" parent="cPwWHmM8qkRHBvmluJ3e-1">
                    <mxGeometry x="200" y="940" width="120" height="60" as="geometry"/>
                </mxCell>
                <mxCell id="J4YeNeJ_UbZllBa-aAjY-13" value="后台服务" style="rounded=0;whiteSpace=wrap;html=1;fillColor=#dae8fc;strokeColor=#6c8ebf;" vertex="1" parent="cPwWHmM8qkRHBvmluJ3e-1">
                    <mxGeometry x="520" y="940" width="120" height="60" as="geometry"/>
                </mxCell>
                <mxCell id="J4YeNeJ_UbZllBa-aAjY-14" value="后台服务" style="rounded=0;whiteSpace=wrap;html=1;fillColor=#dae8fc;strokeColor=#6c8ebf;" vertex="1" parent="cPwWHmM8qkRHBvmluJ3e-1">
                    <mxGeometry x="120" y="840" width="120" height="60" as="geometry"/>
                </mxCell>
                <mxCell id="J4YeNeJ_UbZllBa-aAjY-15" style="edgeStyle=orthogonalEdgeStyle;rounded=0;orthogonalLoop=1;jettySize=auto;html=1;exitX=0.75;exitY=1;exitDx=0;exitDy=0;entryX=0.5;entryY=0;entryDx=0;entryDy=0;curved=1;" edge="1" parent="cPwWHmM8qkRHBvmluJ3e-1" source="J4YeNeJ_UbZllBa-aAjY-19" target="J4YeNeJ_UbZllBa-aAjY-7">
                    <mxGeometry relative="1" as="geometry"/>
                </mxCell>
                <mxCell id="J4YeNeJ_UbZllBa-aAjY-16" value="2. 请求后台" style="edgeLabel;html=1;align=center;verticalAlign=middle;resizable=0;points=[];" vertex="1" connectable="0" parent="J4YeNeJ_UbZllBa-aAjY-15">
                    <mxGeometry x="-0.744" y="5" relative="1" as="geometry">
                        <mxPoint x="-25" as="offset"/>
                    </mxGeometry>
                </mxCell>
                <mxCell id="J4YeNeJ_UbZllBa-aAjY-17" style="edgeStyle=orthogonalEdgeStyle;curved=1;rounded=0;orthogonalLoop=1;jettySize=auto;html=1;exitX=1;exitY=0.25;exitDx=0;exitDy=0;entryX=0;entryY=0.25;entryDx=0;entryDy=0;" edge="1" parent="cPwWHmM8qkRHBvmluJ3e-1" source="J4YeNeJ_UbZllBa-aAjY-19" target="J4YeNeJ_UbZllBa-aAjY-22">
                    <mxGeometry relative="1" as="geometry"/>
                </mxCell>
                <mxCell id="J4YeNeJ_UbZllBa-aAjY-18" value="1. 身份认证" style="edgeLabel;html=1;align=center;verticalAlign=middle;resizable=0;points=[];" vertex="1" connectable="0" parent="J4YeNeJ_UbZllBa-aAjY-17">
                    <mxGeometry x="-0.406" y="1" relative="1" as="geometry">
                        <mxPoint x="10" as="offset"/>
                    </mxGeometry>
                </mxCell>
                <mxCell id="J4YeNeJ_UbZllBa-aAjY-19" value="接入层CGI" style="rounded=0;whiteSpace=wrap;html=1;fillColor=#f8cecc;strokeColor=#b85450;" vertex="1" parent="cPwWHmM8qkRHBvmluJ3e-1">
                    <mxGeometry x="340" y="640" width="120" height="60" as="geometry"/>
                </mxCell>
                <mxCell id="J4YeNeJ_UbZllBa-aAjY-20" style="edgeStyle=orthogonalEdgeStyle;curved=1;rounded=0;orthogonalLoop=1;jettySize=auto;html=1;exitX=0;exitY=0.75;exitDx=0;exitDy=0;entryX=1;entryY=0.75;entryDx=0;entryDy=0;dashed=1;" edge="1" parent="cPwWHmM8qkRHBvmluJ3e-1" source="J4YeNeJ_UbZllBa-aAjY-22" target="J4YeNeJ_UbZllBa-aAjY-19">
                    <mxGeometry relative="1" as="geometry"/>
                </mxCell>
                <mxCell id="J4YeNeJ_UbZllBa-aAjY-21" value="认证结果" style="edgeLabel;html=1;align=center;verticalAlign=middle;resizable=0;points=[];" vertex="1" connectable="0" parent="J4YeNeJ_UbZllBa-aAjY-20">
                    <mxGeometry x="-0.0707" y="2" relative="1" as="geometry">
                        <mxPoint x="-2.8599999999999994" as="offset"/>
                    </mxGeometry>
                </mxCell>
                <mxCell id="J4YeNeJ_UbZllBa-aAjY-22" value="认证服务" style="rounded=1;whiteSpace=wrap;html=1;fillColor=#d5e8d4;strokeColor=#82b366;" vertex="1" parent="cPwWHmM8qkRHBvmluJ3e-1">
                    <mxGeometry x="560" y="640" width="120" height="60" as="geometry"/>
                </mxCell>
                <mxCell id="J4YeNeJ_UbZllBa-aAjY-30" style="edgeStyle=orthogonalEdgeStyle;curved=1;rounded=0;orthogonalLoop=1;jettySize=auto;html=1;exitX=0.25;exitY=0;exitDx=0;exitDy=0;entryX=0.5;entryY=0;entryDx=0;entryDy=0;dashed=1;dashPattern=1 1;" edge="1" parent="cPwWHmM8qkRHBvmluJ3e-1" source="J4YeNeJ_UbZllBa-aAjY-23" target="J4YeNeJ_UbZllBa-aAjY-22">
                    <mxGeometry relative="1" as="geometry"/>
                </mxCell>
                <mxCell id="J4YeNeJ_UbZllBa-aAjY-23" value="访问控制" style="rounded=0;whiteSpace=wrap;html=1;align=center;fillColor=#d5e8d4;strokeColor=#82b366;" vertex="1" parent="cPwWHmM8qkRHBvmluJ3e-1">
                    <mxGeometry x="120" y="840" width="120" height="20" as="geometry"/>
                </mxCell>
                <mxCell id="J4YeNeJ_UbZllBa-aAjY-24" value="访问控制" style="rounded=0;whiteSpace=wrap;html=1;align=center;fillColor=#d5e8d4;strokeColor=#82b366;" vertex="1" parent="cPwWHmM8qkRHBvmluJ3e-1">
                    <mxGeometry x="200" y="940" width="120" height="20" as="geometry"/>
                </mxCell>
                <mxCell id="J4YeNeJ_UbZllBa-aAjY-29" style="edgeStyle=orthogonalEdgeStyle;curved=1;rounded=0;orthogonalLoop=1;jettySize=auto;html=1;exitX=0.75;exitY=0;exitDx=0;exitDy=0;entryX=0.75;entryY=1;entryDx=0;entryDy=0;dashed=1;dashPattern=1 1;" edge="1" parent="cPwWHmM8qkRHBvmluJ3e-1" source="J4YeNeJ_UbZllBa-aAjY-25" target="J4YeNeJ_UbZllBa-aAjY-22">
                    <mxGeometry relative="1" as="geometry"/>
                </mxCell>
                <mxCell id="J4YeNeJ_UbZllBa-aAjY-25" value="访问控制" style="rounded=0;whiteSpace=wrap;html=1;align=center;fillColor=#d5e8d4;strokeColor=#82b366;" vertex="1" parent="cPwWHmM8qkRHBvmluJ3e-1">
                    <mxGeometry x="520" y="940" width="120" height="20" as="geometry"/>
                </mxCell>
            </root>
        </mxGraphModel>
    </diagram>
    <diagram id="5YeiVbOKc8NaGOXNw4Aq" name="各自为政">
        <mxGraphModel dx="483" dy="613" grid="1" gridSize="10" guides="1" tooltips="1" connect="1" arrows="1" fold="1" page="1" pageScale="1" pageWidth="827" pageHeight="1169" math="0" shadow="0">
            <root>
                <mxCell id="y2F1K9lgs6hYwlQMIuu_-0"/>
                <mxCell id="y2F1K9lgs6hYwlQMIuu_-1" parent="y2F1K9lgs6hYwlQMIuu_-0"/>
                <mxCell id="mzxCUwvUtwjOgJloeXt8-0" style="edgeStyle=orthogonalEdgeStyle;curved=1;rounded=0;orthogonalLoop=1;jettySize=auto;html=1;exitX=0.5;exitY=1;exitDx=0;exitDy=0;entryX=0.5;entryY=0;entryDx=0;entryDy=0;" edge="1" parent="y2F1K9lgs6hYwlQMIuu_-1" source="mzxCUwvUtwjOgJloeXt8-19" target="mzxCUwvUtwjOgJloeXt8-5">
                    <mxGeometry relative="1" as="geometry"/>
                </mxCell>
                <mxCell id="mzxCUwvUtwjOgJloeXt8-1" style="edgeStyle=orthogonalEdgeStyle;rounded=0;orthogonalLoop=1;jettySize=auto;html=1;exitX=0.5;exitY=1;exitDx=0;exitDy=0;entryX=0.5;entryY=0;entryDx=0;entryDy=0;curved=1;" edge="1" parent="y2F1K9lgs6hYwlQMIuu_-1" source="mzxCUwvUtwjOgJloeXt8-2" target="mzxCUwvUtwjOgJloeXt8-19">
                    <mxGeometry relative="1" as="geometry"/>
                </mxCell>
                <mxCell id="mzxCUwvUtwjOgJloeXt8-2" value="用户" style="ellipse;whiteSpace=wrap;html=1;fillColor=#ffe6cc;strokeColor=#d79b00;" vertex="1" parent="y2F1K9lgs6hYwlQMIuu_-1">
                    <mxGeometry x="340" y="520" width="120" height="80" as="geometry"/>
                </mxCell>
                <mxCell id="mzxCUwvUtwjOgJloeXt8-3" style="edgeStyle=orthogonalEdgeStyle;curved=1;rounded=0;orthogonalLoop=1;jettySize=auto;html=1;exitX=0.25;exitY=1;exitDx=0;exitDy=0;entryX=0.5;entryY=0;entryDx=0;entryDy=0;" edge="1" parent="y2F1K9lgs6hYwlQMIuu_-1" source="mzxCUwvUtwjOgJloeXt8-5" target="mzxCUwvUtwjOgJloeXt8-14">
                    <mxGeometry relative="1" as="geometry"/>
                </mxCell>
                <mxCell id="mzxCUwvUtwjOgJloeXt8-26" value="约定RSA公私钥" style="edgeLabel;html=1;align=center;verticalAlign=middle;resizable=0;points=[];" vertex="1" connectable="0" parent="mzxCUwvUtwjOgJloeXt8-3">
                    <mxGeometry x="0.2098" relative="1" as="geometry">
                        <mxPoint x="13" as="offset"/>
                    </mxGeometry>
                </mxCell>
                <mxCell id="mzxCUwvUtwjOgJloeXt8-4" style="edgeStyle=orthogonalEdgeStyle;curved=1;rounded=0;orthogonalLoop=1;jettySize=auto;html=1;exitX=0.5;exitY=1;exitDx=0;exitDy=0;entryX=0.25;entryY=0;entryDx=0;entryDy=0;" edge="1" parent="y2F1K9lgs6hYwlQMIuu_-1" source="mzxCUwvUtwjOgJloeXt8-5" target="mzxCUwvUtwjOgJloeXt8-11">
                    <mxGeometry relative="1" as="geometry"/>
                </mxCell>
                <mxCell id="mzxCUwvUtwjOgJloeXt8-5" value="后台服务" style="rounded=0;whiteSpace=wrap;html=1;fillColor=#dae8fc;strokeColor=#6c8ebf;" vertex="1" parent="y2F1K9lgs6hYwlQMIuu_-1">
                    <mxGeometry x="280" y="740" width="120" height="60" as="geometry"/>
                </mxCell>
                <mxCell id="mzxCUwvUtwjOgJloeXt8-6" style="edgeStyle=orthogonalEdgeStyle;curved=1;rounded=0;orthogonalLoop=1;jettySize=auto;html=1;exitX=0.5;exitY=1;exitDx=0;exitDy=0;entryX=0.5;entryY=0;entryDx=0;entryDy=0;" edge="1" parent="y2F1K9lgs6hYwlQMIuu_-1" source="mzxCUwvUtwjOgJloeXt8-7" target="mzxCUwvUtwjOgJloeXt8-9">
                    <mxGeometry relative="1" as="geometry"/>
                </mxCell>
                <mxCell id="mzxCUwvUtwjOgJloeXt8-27" value="约定AES对称密钥" style="edgeLabel;html=1;align=center;verticalAlign=middle;resizable=0;points=[];" vertex="1" connectable="0" parent="mzxCUwvUtwjOgJloeXt8-6">
                    <mxGeometry x="-0.1895" y="-1" relative="1" as="geometry">
                        <mxPoint x="-2" as="offset"/>
                    </mxGeometry>
                </mxCell>
                <mxCell id="mzxCUwvUtwjOgJloeXt8-7" value="后台服务" style="rounded=0;whiteSpace=wrap;html=1;fillColor=#dae8fc;strokeColor=#6c8ebf;" vertex="1" parent="y2F1K9lgs6hYwlQMIuu_-1">
                    <mxGeometry x="440" y="740" width="120" height="60" as="geometry"/>
                </mxCell>
                <mxCell id="mzxCUwvUtwjOgJloeXt8-8" style="edgeStyle=orthogonalEdgeStyle;curved=1;rounded=0;orthogonalLoop=1;jettySize=auto;html=1;exitX=0.5;exitY=1;exitDx=0;exitDy=0;entryX=0.5;entryY=0;entryDx=0;entryDy=0;" edge="1" parent="y2F1K9lgs6hYwlQMIuu_-1" source="mzxCUwvUtwjOgJloeXt8-9" target="mzxCUwvUtwjOgJloeXt8-13">
                    <mxGeometry relative="1" as="geometry"/>
                </mxCell>
                <mxCell id="mzxCUwvUtwjOgJloeXt8-9" value="后台服务" style="rounded=0;whiteSpace=wrap;html=1;fillColor=#dae8fc;strokeColor=#6c8ebf;" vertex="1" parent="y2F1K9lgs6hYwlQMIuu_-1">
                    <mxGeometry x="480" y="840" width="120" height="60" as="geometry"/>
                </mxCell>
                <mxCell id="mzxCUwvUtwjOgJloeXt8-10" style="edgeStyle=orthogonalEdgeStyle;curved=1;rounded=0;orthogonalLoop=1;jettySize=auto;html=1;exitX=0.5;exitY=1;exitDx=0;exitDy=0;entryX=0.5;entryY=0;entryDx=0;entryDy=0;" edge="1" parent="y2F1K9lgs6hYwlQMIuu_-1" source="mzxCUwvUtwjOgJloeXt8-11" target="mzxCUwvUtwjOgJloeXt8-12">
                    <mxGeometry relative="1" as="geometry"/>
                </mxCell>
                <mxCell id="mzxCUwvUtwjOgJloeXt8-28" value="约定哈希盐" style="edgeLabel;html=1;align=center;verticalAlign=middle;resizable=0;points=[];" vertex="1" connectable="0" parent="mzxCUwvUtwjOgJloeXt8-10">
                    <mxGeometry x="-0.007" relative="1" as="geometry">
                        <mxPoint as="offset"/>
                    </mxGeometry>
                </mxCell>
                <mxCell id="mzxCUwvUtwjOgJloeXt8-11" value="后台服务" style="rounded=0;whiteSpace=wrap;html=1;fillColor=#dae8fc;strokeColor=#6c8ebf;" vertex="1" parent="y2F1K9lgs6hYwlQMIuu_-1">
                    <mxGeometry x="280" y="840" width="120" height="60" as="geometry"/>
                </mxCell>
                <mxCell id="mzxCUwvUtwjOgJloeXt8-12" value="后台服务" style="rounded=0;whiteSpace=wrap;html=1;fillColor=#dae8fc;strokeColor=#6c8ebf;" vertex="1" parent="y2F1K9lgs6hYwlQMIuu_-1">
                    <mxGeometry x="200" y="940" width="120" height="60" as="geometry"/>
                </mxCell>
                <mxCell id="mzxCUwvUtwjOgJloeXt8-13" value="后台服务" style="rounded=0;whiteSpace=wrap;html=1;fillColor=#dae8fc;strokeColor=#6c8ebf;" vertex="1" parent="y2F1K9lgs6hYwlQMIuu_-1">
                    <mxGeometry x="520" y="940" width="120" height="60" as="geometry"/>
                </mxCell>
                <mxCell id="mzxCUwvUtwjOgJloeXt8-14" value="后台服务" style="rounded=0;whiteSpace=wrap;html=1;fillColor=#dae8fc;strokeColor=#6c8ebf;" vertex="1" parent="y2F1K9lgs6hYwlQMIuu_-1">
                    <mxGeometry x="120" y="840" width="120" height="60" as="geometry"/>
                </mxCell>
                <mxCell id="mzxCUwvUtwjOgJloeXt8-15" style="edgeStyle=orthogonalEdgeStyle;rounded=0;orthogonalLoop=1;jettySize=auto;html=1;exitX=0.75;exitY=1;exitDx=0;exitDy=0;entryX=0.5;entryY=0;entryDx=0;entryDy=0;curved=1;" edge="1" parent="y2F1K9lgs6hYwlQMIuu_-1" source="mzxCUwvUtwjOgJloeXt8-19" target="mzxCUwvUtwjOgJloeXt8-7">
                    <mxGeometry relative="1" as="geometry"/>
                </mxCell>
                <mxCell id="mzxCUwvUtwjOgJloeXt8-16" value="2. 请求后台" style="edgeLabel;html=1;align=center;verticalAlign=middle;resizable=0;points=[];" vertex="1" connectable="0" parent="mzxCUwvUtwjOgJloeXt8-15">
                    <mxGeometry x="-0.744" y="5" relative="1" as="geometry">
                        <mxPoint x="-25" as="offset"/>
                    </mxGeometry>
                </mxCell>
                <mxCell id="mzxCUwvUtwjOgJloeXt8-17" style="edgeStyle=orthogonalEdgeStyle;curved=1;rounded=0;orthogonalLoop=1;jettySize=auto;html=1;exitX=1;exitY=0.25;exitDx=0;exitDy=0;entryX=0;entryY=0.25;entryDx=0;entryDy=0;" edge="1" parent="y2F1K9lgs6hYwlQMIuu_-1" source="mzxCUwvUtwjOgJloeXt8-19" target="mzxCUwvUtwjOgJloeXt8-22">
                    <mxGeometry relative="1" as="geometry"/>
                </mxCell>
                <mxCell id="mzxCUwvUtwjOgJloeXt8-18" value="1. 身份认证" style="edgeLabel;html=1;align=center;verticalAlign=middle;resizable=0;points=[];" vertex="1" connectable="0" parent="mzxCUwvUtwjOgJloeXt8-17">
                    <mxGeometry x="-0.406" y="1" relative="1" as="geometry">
                        <mxPoint x="10" as="offset"/>
                    </mxGeometry>
                </mxCell>
                <mxCell id="mzxCUwvUtwjOgJloeXt8-19" value="接入层CGI" style="rounded=0;whiteSpace=wrap;html=1;fillColor=#f8cecc;strokeColor=#b85450;" vertex="1" parent="y2F1K9lgs6hYwlQMIuu_-1">
                    <mxGeometry x="340" y="640" width="120" height="60" as="geometry"/>
                </mxCell>
                <mxCell id="mzxCUwvUtwjOgJloeXt8-20" style="edgeStyle=orthogonalEdgeStyle;curved=1;rounded=0;orthogonalLoop=1;jettySize=auto;html=1;exitX=0;exitY=0.75;exitDx=0;exitDy=0;entryX=1;entryY=0.75;entryDx=0;entryDy=0;dashed=1;" edge="1" parent="y2F1K9lgs6hYwlQMIuu_-1" source="mzxCUwvUtwjOgJloeXt8-22" target="mzxCUwvUtwjOgJloeXt8-19">
                    <mxGeometry relative="1" as="geometry"/>
                </mxCell>
                <mxCell id="mzxCUwvUtwjOgJloeXt8-21" value="认证结果" style="edgeLabel;html=1;align=center;verticalAlign=middle;resizable=0;points=[];" vertex="1" connectable="0" parent="mzxCUwvUtwjOgJloeXt8-20">
                    <mxGeometry x="-0.0707" y="2" relative="1" as="geometry">
                        <mxPoint x="-2.8599999999999994" as="offset"/>
                    </mxGeometry>
                </mxCell>
                <mxCell id="mzxCUwvUtwjOgJloeXt8-22" value="认证服务" style="rounded=1;whiteSpace=wrap;html=1;fillColor=#d5e8d4;strokeColor=#82b366;" vertex="1" parent="y2F1K9lgs6hYwlQMIuu_-1">
                    <mxGeometry x="560" y="640" width="120" height="60" as="geometry"/>
                </mxCell>
                <mxCell id="mzxCUwvUtwjOgJloeXt8-23" value="访问控制" style="rounded=0;whiteSpace=wrap;html=1;align=center;fillColor=#d5e8d4;strokeColor=#82b366;" vertex="1" parent="y2F1K9lgs6hYwlQMIuu_-1">
                    <mxGeometry x="120" y="840" width="120" height="20" as="geometry"/>
                </mxCell>
                <mxCell id="mzxCUwvUtwjOgJloeXt8-24" value="访问控制" style="rounded=0;whiteSpace=wrap;html=1;align=center;fillColor=#d5e8d4;strokeColor=#82b366;" vertex="1" parent="y2F1K9lgs6hYwlQMIuu_-1">
                    <mxGeometry x="200" y="940" width="120" height="20" as="geometry"/>
                </mxCell>
                <mxCell id="mzxCUwvUtwjOgJloeXt8-25" value="访问控制" style="rounded=0;whiteSpace=wrap;html=1;align=center;fillColor=#d5e8d4;strokeColor=#82b366;" vertex="1" parent="y2F1K9lgs6hYwlQMIuu_-1">
                    <mxGeometry x="520" y="940" width="120" height="20" as="geometry"/>
                </mxCell>
            </root>
        </mxGraphModel>
    </diagram>
</mxfile>